<?xml version="1.0" standalone="no"?>
<!DOCTYPE svg PUBLIC "-//W3C//DTD SVG 20010904//EN"
 "http://www.w3.org/TR/2001/REC-SVG-20010904/DTD/svg10.dtd">
<svg version="1.0" xmlns="http://www.w3.org/2000/svg"
 width="800.000000pt" height="533.000000pt" viewBox="0 0 800.000000 533.000000"
 preserveAspectRatio="xMidYMid meet">
<metadata>
Created by potrace 1.16, written by Peter Selinger 2001-2019
</metadata>
<g transform="translate(0.000000,533.000000) scale(0.100000,-0.100000)"
fill="#000000" stroke="none">
<path d="M0 3916 l0 -1415 38 5 c40 4 35 0 -11 -10 l-28 -7 2 -92 c2 -50 4
-84 6 -75 3 13 12 16 36 12 l32 -4 -35 14 c-19 8 -30 15 -23 15 6 1 20 4 30 7
14 4 15 4 4 -4 -10 -8 -6 -12 19 -17 21 -5 35 -3 40 4 4 7 18 13 31 15 13 2
31 6 39 9 8 3 38 8 65 11 28 3 66 8 85 12 19 4 32 4 29 0 -3 -3 -32 -11 -63
-17 -63 -11 -225 -59 -268 -80 l-28 -12 0 -604 c0 -603 0 -603 21 -603 11 0
29 5 39 10 13 7 43 6 94 -1 41 -6 86 -9 98 -5 13 3 66 40 118 82 205 165 401
316 406 312 2 -3 -102 -89 -231 -192 -129 -104 -237 -191 -239 -195 -3 -3 212
-8 477 -9 265 -1 534 -5 598 -8 l117 -6 27 31 c16 17 34 31 42 31 18 0 16 -17
-3 -24 -9 -4 -14 -9 -11 -13 4 -3 -10 -25 -31 -48 -47 -53 -112 -143 -112
-155 0 -6 -15 -27 -34 -48 -45 -49 -156 -212 -156 -228 0 -14 -34 -8 -67 13
-17 11 -101 15 -410 19 -213 2 -468 6 -565 8 l-178 5 0 -24 c0 -19 6 -25 33
-29 29 -5 384 -17 632 -22 154 -3 142 -1 123 -21 -19 -18 -83 -43 -114 -43
-11 0 -49 -11 -83 -25 -113 -46 -277 -82 -406 -89 -66 -4 -135 -9 -153 -12
l-32 -6 0 -194 0 -194 2648 1 c1456 1 2636 5 2622 9 -19 6 -9 9 40 11 36 1 85
3 108 4 26 1 49 -4 57 -12 11 -11 232 -13 1269 -13 l1256 0 0 168 0 167 -93
30 c-82 27 -230 91 -297 130 l-25 15 27 0 c15 0 38 -4 53 -10 14 -5 49 -10 78
-11 28 -1 79 -10 111 -20 33 -10 62 -16 66 -14 3 2 23 0 43 -5 l37 -8 0 94 0
94 -27 1 c-16 1 -156 3 -313 5 -261 3 -408 -4 -452 -21 -12 -5 -28 3 -49 24
-17 17 -32 31 -33 31 -1 0 -85 81 -186 180 -102 99 -188 180 -192 180 -5 0 -8
4 -8 10 0 10 707 4 743 -6 11 -4 17 0 17 11 0 13 2 13 14 3 11 -11 11 -15 -3
-26 -13 -10 -11 -10 11 -1 16 7 24 17 21 25 -3 8 -1 14 5 14 6 0 12 -5 14 -12
3 -8 23 -11 58 -9 36 2 56 -2 61 -11 5 -7 9 -8 9 -2 0 7 11 9 28 6 15 -2 25
-2 22 1 -3 3 -79 61 -170 129 -276 208 -370 280 -370 285 0 8 20 -7 293 -211
257 -191 267 -200 245 -213 -21 -12 -21 -13 -3 -11 30 3 104 -12 111 -23 3 -5
-16 -9 -43 -10 -26 0 -42 -3 -35 -6 6 -2 12 -9 12 -15 0 -20 -188 28 -215 55
-7 7 -5 7 5 2 12 -6 13 -5 3 6 -10 9 -16 10 -24 2 -8 -8 -3 -19 20 -39 17 -15
31 -33 31 -40 0 -7 8 -14 17 -16 10 -2 18 -12 18 -22 0 -16 14 -23 70 -37 39
-10 75 -18 80 -19 6 0 2 -7 -8 -14 -20 -15 -10 -28 36 -45 15 -6 27 -17 27
-25 0 -12 -5 -12 -30 -3 -21 8 -33 8 -40 1 -7 -7 -7 -11 2 -11 43 -3 114 -16
123 -23 5 -4 27 -11 49 -15 36 -7 38 -6 31 14 -3 12 -2 21 4 21 5 0 12 -15 14
-33 2 -17 5 -3 5 32 2 50 -2 67 -15 77 -17 13 -17 13 0 14 20 0 25 55 5 64
-10 5 -10 7 -1 12 25 11 12 23 -30 27 l-42 4 43 1 c60 3 52 20 -10 24 -45 3
-53 6 -53 23 0 15 7 20 28 21 15 1 30 4 33 7 4 4 15 2 25 -4 18 -9 19 48 19
2151 l0 2160 -4000 0 -4000 0 0 -1414z m4350 830 c0 -7 32 -41 70 -76 39 -35
70 -67 70 -73 0 -5 -9 -11 -20 -14 -23 -6 -25 -16 -9 -45 6 -12 11 -37 11 -57
0 -21 3 -43 9 -51 6 -11 9 -4 9 23 0 39 33 97 56 97 18 0 24 -25 24 -98 0 -74
-28 -139 -55 -128 -12 4 -15 -7 -15 -59 0 -36 4 -65 10 -65 5 0 24 -29 42 -66
29 -59 38 -68 97 -101 94 -51 95 -53 71 -70 -59 -41 -188 -384 -250 -658 -34
-154 -40 -176 -50 -170 -5 3 -7 12 -4 19 3 8 0 17 -6 21 -6 3 -10 3 -9 -2 4
-22 -3 -33 -22 -33 -11 0 -17 -4 -14 -10 6 -10 -43 -59 -60 -60 -7 0 -7 3 0 8
12 9 32 39 45 70 10 23 0 63 -23 91 -7 8 -13 44 -14 80 -2 73 -6 97 -16 107
-3 3 -4 19 -1 34 5 23 2 28 -20 32 -14 3 -24 2 -22 -1 2 -3 -3 -13 -12 -20
-14 -13 -15 -12 -9 8 4 17 2 21 -9 17 -19 -7 -18 14 2 42 12 17 13 26 4 36
-12 16 -12 147 1 168 7 10 13 8 31 -11 13 -14 16 -19 7 -13 -14 10 -18 9 -23
-10 -3 -13 -6 -39 -6 -58 0 -25 3 -31 11 -23 6 6 17 9 24 7 7 -3 22 7 34 22
19 24 20 29 6 36 -35 20 -4 58 49 58 14 0 27 4 31 9 8 13 -143 147 -161 143
-10 -2 -13 1 -9 8 4 7 28 10 58 8 45 -3 52 -1 54 17 1 11 0 14 -3 8 -9 -19
-23 -15 -17 5 2 9 33 39 69 66 67 51 92 76 55 57 -17 -10 -20 -9 -15 4 4 8 1
15 -5 15 -6 0 -11 -4 -11 -10 0 -5 -6 -10 -13 -10 -7 0 -20 -9 -30 -20 -10
-12 -22 -18 -27 -15 -6 3 -10 1 -10 -5 0 -7 -6 -10 -14 -7 -8 3 -17 1 -19 -6
-3 -8 -12 -5 -27 10 -26 25 -21 53 10 53 l21 0 -21 27 -21 27 23 12 c30 16 64
3 60 -25 -4 -26 25 -29 30 -3 5 19 -21 121 -34 139 -5 6 -22 16 -38 21 -25 9
-28 8 -23 -6 4 -9 18 -28 31 -41 22 -20 23 -25 10 -32 -8 -5 -28 -5 -44 0 -16
4 -39 7 -51 5 -15 -3 -23 1 -23 10 0 9 -11 13 -32 12 -28 -1 -33 2 -32 22 0
12 0 22 -1 22 -1 0 -16 -7 -34 -16 -25 -12 -30 -20 -25 -36 4 -14 2 -18 -5
-14 -15 10 -14 0 2 -16 7 -7 22 -41 33 -76 l21 -62 -24 22 c-13 12 -21 28 -18
36 2 7 0 10 -5 7 -6 -4 -22 20 -37 52 -14 32 -37 71 -52 86 -22 24 -26 37 -26
93 0 42 -4 65 -12 69 -7 2 -13 12 -13 22 1 17 1 17 14 1 11 -15 12 -1 8 81
l-4 98 26 7 c15 4 35 2 46 -4 10 -5 30 -10 44 -10 14 0 28 -4 31 -10 10 -17
25 -11 37 14 6 14 25 30 42 37 17 7 54 37 82 66 36 38 55 52 67 47 9 -3 17
-12 17 -18z m-579 -136 c39 -21 48 -61 55 -233 7 -180 -5 -492 -17 -422 l-6
40 -2 -40 c-9 -178 -13 -247 -27 -445 -16 -233 -16 -299 1 -290 6 3 9 8 8 11
-1 4 6 5 15 2 16 -4 17 4 15 74 l-2 78 9 -59 c10 -59 40 -124 66 -139 8 -4 14
-14 14 -22 0 -20 -43 -4 -46 17 -3 21 -23 56 -24 42 0 -7 -9 -14 -19 -17 -14
-3 -18 -11 -14 -26 4 -18 1 -20 -25 -17 -34 5 -63 19 -87 42 -9 9 -18 14 -21
11 -12 -12 44 -53 91 -68 42 -13 50 -19 48 -38 -2 -13 1 -20 7 -16 6 3 10 1
10 -4 0 -16 -10 -13 -45 13 -22 17 -40 23 -56 20 -16 -4 -20 -3 -11 3 9 7 1
13 -28 22 -43 13 -60 9 -60 -15 0 -12 5 -15 25 -14 3 1 18 -6 33 -14 15 -8 45
-19 67 -25 49 -13 83 -36 71 -48 -5 -4 -11 -2 -13 5 -3 6 -9 10 -13 7 -5 -3
-17 -1 -27 4 -37 19 -127 41 -135 33 -10 -10 -17 -41 -20 -89 -3 -39 -7 -40
-32 -7 -13 19 -16 35 -12 62 4 20 11 77 17 127 6 49 16 93 22 97 8 5 7 10 -1
21 -10 11 -8 19 7 38 10 13 19 35 19 49 0 24 92 318 133 425 16 43 20 95 30
365 6 173 8 334 4 356 -8 56 -24 75 -71 84 l-39 8 33 1 c18 0 42 -4 53 -9z
m365 -597 c9 -16 26 -41 37 -57 19 -28 19 -29 1 -39 -29 -16 -84 -77 -84 -93
0 -16 36 -19 45 -4 11 18 23 10 30 -20 5 -24 -2 -48 -31 -108 -34 -71 -39 -91
-56 -247 -24 -211 -26 -224 -39 -204 -6 9 -8 0 -8 -31 1 -37 2 -41 9 -20 7 21
8 17 9 -21 2 -107 -69 -78 -166 68 l-38 58 0 115 c0 109 2 120 37 206 49 124
84 197 130 273 21 34 38 66 38 70 0 12 51 81 60 81 5 0 17 -12 26 -27z m-148
-31 c-46 -50 -128 -189 -128 -218 0 -7 -5 -16 -11 -19 -6 -4 -10 -1 -8 6 4 31
-2 44 -11 24 -6 -14 -9 0 -9 45 -1 91 11 108 104 156 44 23 82 40 84 38 3 -2
-7 -17 -21 -32z m942 -144 c111 -92 187 -188 207 -262 7 -26 25 -76 41 -110
16 -33 35 -77 43 -96 7 -19 24 -51 37 -70 55 -80 172 -352 172 -398 0 -18 9
-36 25 -50 23 -20 31 -40 26 -66 -4 -17 9 -54 22 -68 12 -13 37 -115 37 -155
0 -12 11 -41 25 -64 14 -24 25 -54 25 -66 l0 -23 630 2 c347 1 633 -2 637 -5
3 -4 -278 -7 -625 -7 l-632 0 0 -122 c0 -68 7 -159 15 -203 8 -44 14 -94 15
-112 0 -31 -1 -31 -32 -23 -34 10 -193 7 -219 -4 -15 -6 -18 8 -24 123 -4 72
-11 134 -16 137 -21 12 -7 23 24 18 24 -4 28 -3 17 5 -8 6 -23 11 -33 11 -10
0 -21 10 -26 23 -14 35 -30 71 -40 87 -30 53 -42 83 -45 112 -2 18 -7 42 -11
52 -6 14 -5 17 3 12 20 -12 14 13 -8 37 -23 24 -20 58 5 84 23 23 17 35 -9 18
-27 -18 -59 -10 -53 14 2 9 8 15 14 14 7 -2 22 10 35 25 13 15 43 36 68 46 25
11 49 23 54 28 16 13 -20 9 -56 -6 -18 -8 -57 -19 -87 -26 -44 -10 -55 -10
-62 1 -13 21 -11 25 16 37 38 18 45 14 10 -5 -24 -14 -26 -18 -12 -21 24 -5
98 32 128 64 l24 27 -30 -8 c-16 -4 -57 -9 -90 -11 -33 -2 -70 -6 -82 -10 -40
-11 -25 12 43 72 55 48 63 59 49 67 -9 5 -28 7 -43 4 -31 -6 -54 1 -46 15 4 7
-8 9 -35 6 -50 -4 -55 9 -6 17 19 3 51 7 70 10 19 3 35 10 35 16 0 5 -11 7
-25 4 -58 -12 -71 -13 -90 -5 -18 7 -18 8 8 15 20 5 26 12 22 23 -3 8 2 23 10
32 13 15 14 18 2 23 -16 6 -41 -38 -32 -54 4 -5 1 -9 -6 -9 -7 0 -9 8 -6 21 3
13 1 19 -6 16 -7 -2 -13 -17 -15 -33 -4 -49 -12 -74 -22 -74 -5 0 -7 21 -4 48
10 100 11 162 3 168 -5 3 -9 14 -9 25 0 10 -7 19 -15 19 -16 0 -21 -25 -6 -34
8 -5 14 -86 6 -86 -18 0 -33 14 -28 27 4 10 2 14 -4 10 -15 -10 -13 -57 3 -57
7 0 16 -4 19 -10 4 -6 -1 -7 -11 -3 -13 5 -15 2 -10 -18 4 -13 -6 1 -21 31
-15 30 -33 54 -40 53 -24 -5 -33 23 -24 73 5 27 9 98 10 158 1 59 3 112 6 116
3 4 2 23 -2 41 l-7 34 -8 -40 c-5 -22 -11 -57 -14 -77 -4 -21 -11 -38 -15 -38
-5 0 -9 5 -9 10 0 6 -4 10 -10 10 -5 0 -10 -15 -10 -32 0 -41 -11 -60 -29 -49
-11 7 -11 17 2 57 9 27 21 76 28 109 6 33 18 77 26 98 9 21 13 40 10 43 -3 3
-12 -14 -20 -38 -12 -36 -18 -43 -38 -41 -23 3 -24 2 -4 -12 20 -16 20 -16 -1
-21 -15 -4 -24 -20 -34 -57 -19 -75 -52 -140 -63 -124 -5 7 -6 4 -2 -9 3 -14
-8 -49 -31 -98 -37 -77 -66 -107 -37 -39 10 25 11 39 4 41 -6 2 -1 28 15 70
14 37 27 91 29 122 3 30 13 80 22 110 9 30 16 59 14 64 -4 16 40 140 66 186
25 43 62 90 71 90 2 0 48 -37 102 -82z m-1170 -965 c-1 -80 -12 -200 -41 -449
-21 -175 -22 -181 -43 -177 -22 4 -22 6 -9 91 19 125 53 467 53 527 0 47 12
75 32 75 4 0 8 -30 8 -67z m116 -140 c-3 -6 17 -25 45 -42 27 -17 49 -33 49
-35 0 -3 -25 -3 -56 -1 -33 1 -52 -1 -47 -6 5 -5 28 -10 51 -11 24 -1 45 -5
48 -10 3 -4 14 -8 25 -8 27 0 27 -55 0 -57 -11 -1 -25 5 -32 13 -6 8 -16 14
-22 14 -33 0 -99 46 -122 84 -24 41 -35 103 -16 92 5 -3 11 4 15 16 5 22 6 22
36 -7 17 -16 28 -35 26 -42z m-2341 -93 c175 -3 103 -5 -300 -11 -546 -7 -716
-17 -982 -60 -128 -20 -173 -23 -113 -8 55 14 282 46 420 59 106 11 553 26
700 24 25 0 149 -2 275 -4z m5053 -35 c-3 -3 -236 -7 -519 -9 -283 -3 -491 -1
-464 3 56 9 991 14 983 6z m-5072 -88 c4 -4 -18 -7 -49 -7 -46 0 -55 -3 -51
-15 5 -13 -12 -15 -124 -15 -79 0 -133 -4 -137 -10 -4 -7 21 -11 72 -11 89 0
131 -4 153 -13 8 -3 85 -7 170 -9 85 -1 -82 -4 -372 -5 -408 -2 -553 -6 -646
-18 l-120 -15 -51 36 c-51 37 -62 51 -38 52 6 0 52 6 100 13 63 9 96 9 115 1
44 -16 294 -18 276 -2 -5 5 -25 12 -44 14 -19 3 -3 3 35 1 39 -2 126 -4 195
-5 100 -1 115 -3 75 -10 -27 -4 -71 -8 -97 -8 -60 -1 -74 -20 -16 -23 l43 -1
-45 -7 c-42 -6 -40 -7 26 -8 39 -1 86 -5 103 -8 20 -4 31 -3 31 5 0 6 -9 11
-19 11 -11 0 -22 4 -25 9 -7 11 141 31 233 31 41 0 72 2 69 5 -3 3 -54 6 -114
7 -69 1 -94 4 -69 8 55 8 312 6 321 -3z m3904 -600 c-22 -18 -23 -37 -3 -54
17 -14 17 -14 -2 -8 -27 10 -74 17 -55 8 8 -3 21 -12 28 -20 18 -18 39 -16 46
3 4 11 13 14 31 10 20 -5 25 -3 25 14 0 11 7 20 16 20 9 0 12 5 8 13 -6 10 -4
10 7 0 19 -19 29 -16 30 10 0 21 1 21 8 2 5 -11 4 -21 0 -23 -5 -2 -9 -11 -9
-20 0 -15 2 -15 10 -2 8 12 10 11 10 -7 0 -13 -4 -23 -10 -23 -5 0 -10 -7 -10
-15 0 -8 -6 -12 -14 -9 -8 3 -17 0 -22 -7 -4 -7 -3 -10 2 -7 5 3 14 0 21 -7
10 -10 9 -16 -3 -26 -8 -7 -13 -18 -10 -24 2 -7 0 -18 -4 -26 -7 -11 -17 -7
-45 21 -19 18 -35 28 -35 22 0 -7 9 -20 20 -29 25 -21 28 -68 4 -59 -9 3 -26
9 -39 12 -16 4 -22 13 -22 31 0 33 -18 50 -37 34 -9 -7 -16 -8 -20 -2 -4 5 -2
12 3 16 14 8 2 35 -15 35 -8 0 -14 -4 -14 -10 0 -5 -11 -12 -24 -16 -14 -3
-32 -14 -42 -25 -9 -10 -23 -19 -30 -19 -8 0 -20 -13 -28 -28 -18 -34 -46 -60
-46 -43 0 34 187 241 233 258 42 15 56 15 37 0z m-130 -284 c43 -25 64 -71 57
-124 -5 -40 -4 -42 9 -25 15 21 18 18 8 -8 -8 -22 -98 -66 -134 -66 -74 0
-130 57 -130 132 0 41 5 54 29 79 25 25 37 29 81 29 31 0 64 -7 80 -17z
m-1960 -809 c-50 -313 -52 -323 -57 -301 -4 16 -25 17 -270 17 -147 0 -263 3
-259 8 4 4 125 7 269 7 l261 0 17 110 c10 61 21 125 24 143 l6 32 -193 2 -193
3 192 2 c190 3 193 4 198 26 2 12 12 64 21 115 9 51 18 91 21 89 2 -3 -14
-116 -37 -253z m1320 126 l26 -105 580 -5 579 -5 -578 -3 -578 -2 7 -22 c4
-13 21 -77 39 -143 l32 -120 333 -3 c184 -1 338 -6 342 -10 4 -4 -146 -6 -332
-4 -274 2 -340 0 -341 -10 0 -7 -5 -2 -10 12 -15 36 -139 524 -138 541 1 22 9
-3 39 -121z m-357 -147 c3 -5 7 -26 9 -48 l3 -40 -74 -3 c-84 -3 -91 1 -91 61
l0 37 74 0 c41 0 77 -3 79 -7z m211 -1 c3 -5 8 -28 12 -50 l7 -42 -76 0 c-42
0 -78 4 -81 8 -3 5 -8 28 -12 50 l-7 42 76 0 c42 0 78 -4 81 -8z"/>
<path d="M4130 4572 c0 -7 -9 -12 -20 -12 -22 0 -46 -35 -30 -45 45 -28 15
-85 -44 -85 -19 0 -39 -7 -46 -15 -7 -8 -9 -15 -4 -15 4 0 3 -5 -4 -12 -14
-14 -17 -72 -3 -64 4 3 6 18 4 33 -4 25 -3 26 9 12 7 -9 22 -18 33 -21 11 -2
19 -11 19 -20 -2 -20 37 -31 68 -19 13 5 37 25 55 45 17 20 34 36 38 36 4 0
20 -11 37 -25 48 -41 105 -27 92 22 -5 17 -1 21 21 21 34 0 38 5 24 35 -16 36
-35 40 -91 20 -45 -16 -51 -16 -76 -1 -15 9 -33 33 -40 55 -14 40 -42 77 -42
55z"/>
</g>
</svg>
